HIERARCHY
ROOT Hips
{
	OFFSET -0.001795 -0.223333 0.028219
	CHANNELS 6 Xposition Yposition Zposition Zrotation Yrotation Xrotation 
	JOINT LeftUpLeg
	{
		OFFSET 0.069520 -0.091406 -0.006815
		CHANNELS 3 Zrotation Yrotation Xrotation
		JOINT LeftLeg
		{
			OFFSET 0.034277 -0.375199 -0.004496
			CHANNELS 3 Zrotation Yrotation Xrotation
			JOINT LeftFoot
			{
				OFFSET -0.013596 -0.397961 -0.043693
				CHANNELS 3 Zrotation Yrotation Xrotation
				JOINT LeftToe
				{
					OFFSET 0.026358 -0.055791 0.119288
					CHANNELS 3 Zrotation Yrotation Xrotation
					End Site
					{
						OFFSET 0.000000 0.000000 0.000000
					}
				}
			}
		}
	}
	JOINT RightUpLeg
	{
		OFFSET -0.067670 -0.090522 -0.004320
		CHANNELS 3 Zrotation Yrotation Xrotation
		JOINT RightLeg
		{
			OFFSET -0.038290 -0.382569 -0.008850
			CHANNELS 3 Zrotation Yrotation Xrotation
			JOINT RightFoot
			{
				OFFSET 0.015774 -0.398415 -0.042312
				CHANNELS 3 Zrotation Yrotation Xrotation
				JOINT RightToe
				{
					OFFSET -0.025372 -0.048144 0.123348
					CHANNELS 3 Zrotation Yrotation Xrotation
					End Site
					{
						OFFSET 0.000000 0.000000 0.000000
					}
				}
			}
		}
	}
	JOINT Spine
	{
		OFFSET -0.002533 0.108963 -0.026696
		CHANNELS 3 Zrotation Yrotation Xrotation
		JOINT Spine1
		{
			OFFSET 0.005487 0.135180 0.001092
			CHANNELS 3 Zrotation Yrotation Xrotation
			JOINT Spine2
			{
				OFFSET 0.001457 0.052922 0.025425
				CHANNELS 3 Zrotation Yrotation Xrotation
				JOINT Neck
				{
					OFFSET -0.002778 0.213870 -0.042857
					CHANNELS 3 Zrotation Yrotation Xrotation
					JOINT Head
					{
						OFFSET 0.005152 0.064970 0.051349
						CHANNELS 3 Zrotation Yrotation Xrotation
						End Site
						{
							OFFSET 0.000000 0.000000 0.000000
						}
					}
				}
				JOINT LeftShoulder
				{
					OFFSET 0.078845 0.121749 -0.034090
					CHANNELS 3 Zrotation Yrotation Xrotation
					JOINT LeftArm
					{
						OFFSET 0.090977 0.030469 -0.008868
						CHANNELS 3 Zrotation Yrotation Xrotation
						JOINT LeftForeArm
						{
							OFFSET 0.259612 -0.012772 -0.027456
							CHANNELS 3 Zrotation Yrotation Xrotation
							JOINT LeftHand
							{
								OFFSET 0.249234 0.008986 -0.001171
								CHANNELS 3 Zrotation Yrotation Xrotation
								End Site
								{
									OFFSET 0.000000 0.000000 0.000000
								}
							}
						}
					}
				}
				JOINT RightShoulder
				{
					OFFSET -0.081759 0.118833 -0.038615
					CHANNELS 3 Zrotation Yrotation Xrotation
					JOINT RightArm
					{
						OFFSET -0.096012 0.032551 -0.009143
						CHANNELS 3 Zrotation Yrotation Xrotation
						JOINT RightForeArm
						{
							OFFSET -0.253742 -0.013329 -0.021401
							CHANNELS 3 Zrotation Yrotation Xrotation
							JOINT RightHand
							{
								OFFSET -0.255298 0.007772 -0.005559
								CHANNELS 3 Zrotation Yrotation Xrotation
								End Site
								{
									OFFSET 0.000000 0.000000 0.000000
								}
							}
						}
					}
				}
			}
		}
	}
}
MOTION
Frames: 7
Frame Time: 0.050000
0.045891 0.960215 -0.080629 -0.264421 -4.464911 9.915283 5.318069 -0.736798 -15.428153 -0.231455 -0.233598 10.940371 -5.111177 2.250444 30.229256 0.000000 0.000000 0.000000 -4.111973 1.597282 -19.518325 -5.004225 1.202055 8.026754 2.971225 -2.342119 17.487119 0.000000 0.000000 0.000000 4.360673 -0.608028 5.572966 2.068169 -0.654089 -8.031162 -8.788471 3.303909 3.541605 14.912358 -6.300134 -21.223556 0.000000 0.000000 0.000000 14.395134 -11.732542 3.994806 -28.878381 -34.945044 3.996996 89.705943 -38.881087 -36.632628 0.000000 0.000000 0.000000 -8.997311 5.064933 1.911700 35.872878 32.044188 5.869181 -85.103146 44.651367 -35.408784 0.000000 0.000000 0.000000 
0.045926 0.960524 -0.084908 -0.205624 -4.081243 9.646274 5.274651 -0.752779 -15.523115 -0.141195 -0.263342 11.073595 -5.392101 1.934727 30.052635 0.000000 0.000000 0.000000 -4.046715 1.556832 -19.110336 -4.802582 1.142541 7.757220 2.291498 -3.289520 17.049055 0.000000 0.000000 0.000000 4.059071 -0.565091 5.381780 2.444966 -0.793365 -7.992431 -8.843936 2.452168 3.604094 15.091479 -6.499285 -21.056195 0.000000 0.000000 0.000000 14.354940 -12.216413 4.025108 -28.351373 -35.247307 4.013488 90.538800 -36.110100 -34.148661 0.000000 0.000000 0.000000 -8.544706 5.148696 1.970499 35.497257 32.722031 5.918448 -86.086563 42.580786 -34.400154 0.000000 0.000000 0.000000 
0.045809 0.961362 -0.088105 -0.189499 -4.282184 9.550107 5.134741 -0.750739 -15.179136 0.241330 -0.325024 10.384106 -5.776106 1.471101 30.182309 0.000000 0.000000 0.000000 -3.951031 1.535742 -18.642698 -4.668470 1.062362 7.110752 2.052127 -3.532083 16.480497 0.000000 0.000000 0.000000 3.908608 -0.524461 5.022296 2.469057 -0.803198 -8.062609 -8.598965 2.294748 3.525740 14.719589 -6.497825 -20.298106 0.000000 0.000000 0.000000 13.924176 -12.602804 4.078074 -27.597268 -34.962265 3.826834 91.397177 -34.420260 -32.837395 0.000000 0.000000 0.000000 -8.098891 5.455573 2.069127 35.060013 33.110206 5.897726 -87.235881 40.942060 -33.702082 0.000000 0.000000 0.000000 
0.045666 0.962064 -0.091250 -0.192317 -3.993698 9.518773 5.066834 -0.752352 -14.788235 0.279821 -0.317974 9.592454 -5.445478 1.628821 29.276731 0.000000 0.000000 0.000000 -3.925262 1.509575 -18.393317 -4.490415 1.000694 6.738640 1.748660 -3.937713 16.274702 0.000000 0.000000 0.000000 3.690650 -0.468221 4.472347 2.612054 -0.864132 -7.800397 -8.306609 1.813698 3.386755 14.391871 -6.353781 -20.228617 0.000000 0.000000 0.000000 13.905858 -12.688436 4.063722 -26.622543 -35.200131 3.709212 91.703997 -32.490642 -30.952129 0.000000 0.000000 0.000000 -7.704945 6.039744 2.248938 33.984056 34.022822 5.877203 -86.856108 39.907938 -32.731479 0.000000 0.000000 0.000000 
0.045825 0.961723 -0.095271 -0.205032 -4.081195 9.305799 5.096514 -0.728087 -14.295889 0.207209 -0.288062 9.019497 -5.233219 1.510718 28.166731 0.000000 0.000000 0.000000 -3.984826 1.504758 -18.401992 -4.371033 1.001500 6.961986 1.821378 -3.627161 15.765027 0.000000 0.000000 0.000000 3.675487 -0.471409 4.569943 2.600810 -0.864666 -7.733043 -8.097817 1.942890 3.110948 14.427741 -6.288904 -20.514648 0.000000 0.000000 0.000000 14.536494 -13.202978 4.170322 -25.246191 -35.387084 3.452016 90.411515 -29.894902 -27.889498 0.000000 0.000000 0.000000 -7.701441 6.703622 2.433966 32.642725 35.237454 5.910811 -85.355870 39.028990 -31.120369 0.000000 0.000000 0.000000 
0.046648 0.961070 -0.100142 -0.308516 -4.143882 9.106765 5.319840 -0.706178 -14.440953 -0.235137 -0.199489 8.938326 -4.660561 2.330186 28.531636 0.000000 0.000000 0.000000 -3.934985 1.532339 -18.675888 -4.458210 1.040589 7.242437 2.046772 -3.281358 15.886850 0.000000 0.000000 0.000000 3.546462 -0.484648 4.932292 2.590485 -0.862372 -7.729780 -7.712812 2.270579 2.827985 13.857825 -5.929046 -20.547186 0.000000 0.000000 0.000000 14.882357 -13.699779 4.297158 -23.481636 -35.525139 3.075738 88.731278 -27.532745 -25.080845 0.000000 0.000000 0.000000 -8.003733 7.677492 2.695964 30.604625 36.287086 5.705602 -83.596300 38.598128 -29.741533 0.000000 0.000000 0.000000 
0.048204 0.960040 -0.105000 -0.272085 -4.036077 9.097192 5.345722 -0.730213 -15.176626 -0.452554 -0.177739 9.914332 -4.645805 2.044654 27.477730 0.000000 0.000000 0.000000 -4.174127 1.552745 -19.324219 -4.526726 1.083134 7.600289 2.323796 -3.004005 16.495211 0.000000 0.000000 0.000000 3.755073 -0.510870 5.064785 2.307048 -0.762007 -7.495693 -7.423851 2.711085 2.338344 13.721959 -5.744899 -20.721640 0.000000 0.000000 0.000000 15.453337 -14.227957 4.455535 -22.438141 -36.001273 2.899427 86.431396 -24.569607 -21.752761 0.000000 0.000000 0.000000 -9.228793 8.096012 2.781076 29.449153 37.411549 5.774873 -83.342595 38.106717 -28.979567 0.000000 0.000000 0.000000 
